<svg xmlns="http://www.w3.org/2000/svg" version="1.1" xmlns:xlink="http://www.w3.org/1999/xlink" width="512" height="512" x="0" y="0" viewBox="0 0 512 512" style="enable-background:new 0 0 512 512" xml:space="preserve" class=""><g><path d="M222.729 94.308a109.222 109.222 0 0 1 2.209 21.911c0 60.044-48.675 108.719-108.719 108.719S7.5 176.262 7.5 116.219 56.175 7.5 116.219 7.5c40.239 0 75.372 21.861 94.171 54.353M444.294 213.54c-14.604 7.294-31.079 11.397-48.513 11.397-60.044 0-108.719-48.675-108.719-108.719S335.737 7.5 395.781 7.5 504.5 56.175 504.5 116.219c0 29.938-12.101 57.05-31.679 76.711" style="stroke-width:15;stroke-linecap:round;stroke-linejoin:round;stroke-miterlimit:10;" fill="none" stroke="#bb2025" stroke-width="15" stroke-linecap="round" stroke-linejoin="round" stroke-miterlimit="10" data-original="#000000" opacity="1"></path><circle cx="395.781" cy="395.781" r="108.719" style="stroke-width:15;stroke-linecap:round;stroke-linejoin:round;stroke-miterlimit:10;" fill="none" stroke="#bb2025" stroke-width="15" stroke-linecap="round" stroke-linejoin="round" stroke-miterlimit="10" data-original="#000000" opacity="1"></circle><circle cx="116.219" cy="395.781" r="108.719" style="stroke-width:15;stroke-linecap:round;stroke-linejoin:round;stroke-miterlimit:10;" fill="none" stroke="#bb2025" stroke-width="15" stroke-linecap="round" stroke-linejoin="round" stroke-miterlimit="10" data-original="#000000" opacity="1"></circle><path d="M174.043 373.024a61.956 61.956 0 0 1 4.3 22.757c0 34.311-27.814 62.125-62.125 62.125s-62.125-27.814-62.125-62.125 27.814-62.125 62.125-62.125c13.631 0 26.238 4.39 36.481 11.834" style="stroke-width:15;stroke-linecap:round;stroke-linejoin:round;stroke-miterlimit:10;" fill="none" stroke="#bb2025" stroke-width="15" stroke-linecap="round" stroke-linejoin="round" stroke-miterlimit="10" data-original="#000000" opacity="1"></path><path d="M116.219 333.656c17.155 0 31.062 27.814 31.062 62.125s-13.907 62.125-31.062 62.125M116.219 457.906c-17.155 0-31.062-27.814-31.062-62.125s13.907-62.125 31.062-62.125M294.828 287.062v-54.359c0-21.444-17.384-38.828-38.828-38.828h0c-21.444 0-38.828 17.384-38.828 38.828v60.422c0 8.284 6.716 15 15 15h16.062" style="stroke-width:15;stroke-linecap:round;stroke-linejoin:round;stroke-miterlimit:10;" fill="none" stroke="#bb2025" stroke-width="15" stroke-linecap="round" stroke-linejoin="round" stroke-miterlimit="10" data-original="#000000" opacity="1"></path><path d="M217.172 277.062H201.11c-8.284 0-15-6.716-15-15v-16.594c0-8.284 6.716-15 15-15h16.062v46.594zM294.828 277.062h16.062c8.284 0 15-6.716 15-15v-16.594c0-8.284-6.716-15-15-15h-16.062v46.594zM447.9 338.963a32.212 32.212 0 0 0-3.69-3.473 8.27 8.27 0 0 0-11.042.589l-26.989 26.989c-2.891 2.891-3.258 7.478-.812 10.753a27.655 27.655 0 0 0 2.612 3.016 27.46 27.46 0 0 0 7.924 5.534c3.521 1.624 5.137 5.763 3.551 9.301-2.486 5.546-6.365 11.196-11.475 16.306-5.11 5.109-10.76 8.989-16.306 11.475-3.538 1.586-7.677-.03-9.301-3.551a27.447 27.447 0 0 0-5.534-7.924 27.764 27.764 0 0 0-3.016-2.612c-3.276-2.447-7.862-2.079-10.753.812l-26.988 26.988a8.27 8.27 0 0 0-.591 11.04 32.181 32.181 0 0 0 3.474 3.693c20.403 18.778 60.193 10.421 89.775-19.162 29.582-29.581 37.939-69.37 19.161-89.774zM178.344 395.781H54.086M116.219 333.656v124.25M432.906 54.094h-74.25c-13.807 0-25 11.193-25 25v43.188c0 13.807 11.193 25 25 25h37.125l18.259 18.259c4.725 4.725 12.803 1.378 12.803-5.303v-12.956h6.062c13.807 0 25-11.193 25-25V79.094c.001-13.808-11.192-25-24.999-25zM395.781 100.687h0M364.719 100.687h0M426.844 100.687h0M170.844 162.812H61.594a7.5 7.5 0 0 1-7.5-7.5V77.125a7.5 7.5 0 0 1 7.5-7.5h109.25a7.5 7.5 0 0 1 7.5 7.5v78.188a7.5 7.5 0 0 1-7.5 7.499z" style="stroke-width:15;stroke-linecap:round;stroke-linejoin:round;stroke-miterlimit:10;" fill="none" stroke="#bb2025" stroke-width="15" stroke-linecap="round" stroke-linejoin="round" stroke-miterlimit="10" data-original="#000000" opacity="1"></path><path d="m56.29 71.822 46.648 46.648c7.335 7.335 19.227 7.335 26.562 0l46.648-46.648M131.75 116.219l44.397 44.397M56.29 160.616l44.397-44.397M218.177 357.958c11.779 4.371 24.522 6.76 37.823 6.76 13.301 0 26.043-2.389 37.823-6.76M154.041 218.177c-4.371 11.78-6.76 24.522-6.76 37.823 0 13.301 2.389 26.043 6.76 37.823M293.823 154.042c-11.779-4.372-24.522-6.76-37.823-6.76-13.301 0-26.043 2.389-37.823 6.76M357.958 293.823c4.371-11.779 6.76-24.522 6.76-37.823 0-13.301-2.389-26.043-6.76-37.823" style="stroke-width:15;stroke-linecap:round;stroke-linejoin:round;stroke-miterlimit:10;" fill="none" stroke="#bb2025" stroke-width="15" stroke-linecap="round" stroke-linejoin="round" stroke-miterlimit="10" data-original="#000000" opacity="1"></path></g></svg>