<svg xmlns="http://www.w3.org/2000/svg" version="1.1" xmlns:xlink="http://www.w3.org/1999/xlink" width="512" height="512" x="0" y="0" viewBox="0 0 512 512" style="enable-background:new 0 0 512 512" xml:space="preserve" class=""><g><path d="M449.377 331.351c-12.48-9.122-29.999-7.138-40.19 4.542l-4.733 5.419c-1.031-.305-26.603-23.587-50.114-.878-.382-.076-24.809-19.656-44.312 1.832l-33.358 36.755-41.869-11.031c-3.626-.954-6.908-2.633-9.504-4.809-20.916-17.747-44.427-25.648-71.831-24.121-3.168.153-5.572 2.863-5.42 6.03.191 3.13 2.901 5.535 6.03 5.382 24.389-1.336 45.228 5.687 63.816 21.449 3.969 3.321 8.626 5.725 13.969 7.138l72.9 19.16c10.534 2.901 15.992 13.473 12.901 23.397-3.015 9.542-12.901 14.847-22.557 12.137l-58.281-16.564a41.576 41.576 0 0 0-11.526-1.489c-3.168.076-5.687 2.71-5.611 5.878s2.748 5.649 5.84 5.572c2.71-.076 5.458.306 8.206 1.069l58.243 16.565c15.534 4.389 31.679-4.161 36.602-19.733a29.63 29.63 0 0 0 1.412-9.046c0-.076 0-.191-.038-.267l23.893-1.373a5.674 5.674 0 0 0 3.969-1.947l59.999-69.007c6.336-7.251 17.213-8.358 24.77-2.824 8.74 6.412 10.152 18.816 3.092 26.984l-54.655 63.205a42.57 42.57 0 0 1-13.397 10.344l-96.487 47.823c-11.603 5.763-25.076 6.107-36.984 1.031l-88.128-37.9c-2.901-1.259-6.259.076-7.519 2.977s.114 6.259 3.015 7.519l88.128 37.9c14.732 6.336 31.755 6.107 46.602-1.259l96.487-47.824c6.412-3.206 12.099-7.595 16.908-13.092l54.694-63.243c11.412-13.129 9.16-33.319-4.962-43.701zM311.86 388.602c-4.16-1.718-5.344-1.641-22.71-6.298l29.351-32.366c12.443-13.664 27.557-.992 28.053-.84zm38.893 14.465-23.168 1.336c-1.45-3.473-3.588-6.603-6.183-9.274a.658.658 0 0 1 .153-.191c.038-.038.038-.076.076-.076 1.298-1.488 8.244-9.389 39.274-44.732 15.687-18.015 35.457-.267 35.992-.115zM136.597 334.633v145.913c0 10.878-8.855 19.733-19.733 19.733H70.109c-10.878 0-19.732-8.855-19.732-19.733V334.633c0-10.915 8.855-19.77 19.732-19.77h46.755c10.878 0 19.733 8.855 19.733 19.77zM255.983 7.006c-85.227 0-154.577 69.35-154.577 154.577s69.35 154.577 154.577 154.577c85.266 0 154.577-69.35 154.577-154.577S341.249 7.006 255.983 7.006zm0 297.704c-78.892 0-143.127-64.197-143.127-143.127S177.092 18.456 255.983 18.456c78.93 0 143.127 64.197 143.127 143.127S334.913 304.71 255.983 304.71z" fill="#bb2025" opacity="1" data-original="#000000" class=""></path><path d="M282.853 191.049c.191-2.138.076-3.168.115-7.824 11.488-8.244 19.084-21.565 19.427-36.679h.534c8.931 0 16.183-7.252 16.183-16.145 0-5.152-2.481-9.732-6.221-12.671 2.443-7.672 4.771-15.534 5.496-23.893 3.321-37.9-29.542-55.304-62.976-43.052a2.633 2.633 0 0 1-.382.152C218.847 44.41 198.275 61.7 193.58 86.508c-2.023 10.534-.611 21.946 3.931 32.595a16.05 16.05 0 0 0-4.618 11.297c0 8.893 7.252 16.145 16.183 16.145h.534c.343 15.114 7.939 28.434 19.427 36.679.038 4.656-.076 5.687.115 7.786-26.984 2.442-48.167 24.999-48.167 52.785 0 17.939 14.58 32.48 32.48 32.48h85.075c17.9 0 32.48-14.541 32.48-32.48 0-27.594-21.221-50.304-48.167-52.746zm20.076-55.953h-.458v-9.428h.458a4.708 4.708 0 0 1 4.733 4.733c0 2.595-2.099 4.695-4.733 4.695zm-93.395 0c-.382-.153-5.191.152-5.191-4.695 0-4.618 4.809-4.465 5.191-4.694zm11.45 10.343v-30.457h70.037v30.457c0 19.312-15.725 35.038-35.037 35.038-19.275-.001-35-15.726-35-35.038zm50.457 43.778c-.42 8.625-7.404 14.732-15.419 14.732-7.977 0-15.038-6.03-15.458-14.732 4.847 1.717 10 2.71 15.419 2.71 5.42 0 10.611-.993 15.458-2.71zm27.099 75.609h-85.075c-11.603 0-21.03-9.428-21.03-21.03 0-22.366 17.671-40.916 40.457-41.488 1.145 1.87 2.481 3.626 4.046 5.191 5.076 5.114 11.87 7.9 19.084 7.9 9.618 0 18.32-5.038 23.129-13.091 22.366.572 40.419 18.969 40.419 41.488 0 11.602-9.427 21.03-21.03 21.03z" fill="#bb2025" opacity="1" data-original="#000000" class=""></path></g></svg>