<svg xmlns="http://www.w3.org/2000/svg" version="1.1" xmlns:xlink="http://www.w3.org/1999/xlink" width="512" height="512" x="0" y="0" viewBox="0 0 682.667 682.667" style="enable-background:new 0 0 512 512" xml:space="preserve"><g><defs><clipPath id="a" clipPathUnits="userSpaceOnUse"><path d="M0 512h512V0H0Z" fill="#bb2025" opacity="1" data-original="#000000"></path></clipPath></defs><g clip-path="url(#a)" transform="matrix(1.33333 0 0 -1.33333 0 682.667)"><path d="M0 0v-24.595a24.048 24.048 0 0 0-14.097-21.893l-55.284-25.13a32.063 32.063 0 0 1-18.796-29.19v-27.45" style="stroke-width:15;stroke-linecap:round;stroke-linejoin:round;stroke-miterlimit:10;stroke-dasharray:none;stroke-opacity:1" transform="translate(123.617 135.758)" fill="none" stroke="#bb2025" stroke-width="15" stroke-linecap="round" stroke-linejoin="round" stroke-miterlimit="10" stroke-dasharray="none" stroke-opacity="" data-original="#000000" opacity="1"></path><path d="M0 0c-33.545-19.404-56.114-55.673-56.114-97.213v-43.242a95.463 95.463 0 0 0-7.42-36.899c-3.959-9.447-.075-20.321 9.086-24.902l62.463-31.231" style="stroke-width:15;stroke-linecap:round;stroke-linejoin:round;stroke-miterlimit:10;stroke-dasharray:none;stroke-opacity:1" transform="translate(107.586 329.164)" fill="none" stroke="#bb2025" stroke-width="15" stroke-linecap="round" stroke-linejoin="round" stroke-miterlimit="10" stroke-dasharray="none" stroke-opacity="" data-original="#000000" opacity="1"></path><path d="m0 0 62.462 31.231c9.162 4.581 13.046 15.455 9.086 24.902a95.462 95.462 0 0 0-7.419 36.899v40.073a117.34 117.34 0 0 1-3.197 27.22" style="stroke-width:15;stroke-linecap:round;stroke-linejoin:round;stroke-miterlimit:10;stroke-dasharray:none;stroke-opacity:1" transform="translate(211.794 95.677)" fill="none" stroke="#bb2025" stroke-width="15" stroke-linecap="round" stroke-linejoin="round" stroke-miterlimit="10" stroke-dasharray="none" stroke-opacity="" data-original="#000000" opacity="1"></path><path d="M0 0s30.092-60.184 119.427-49.369c4.719.571 8.831-3.254 8.831-8.008v-22.784c0-44.272-35.889-80.162-80.161-80.162v0c-44.272 0-80.161 35.89-80.161 80.162v22.103a24.048 24.048 0 0 0 7.043 17.005l8.989 8.989" style="stroke-width:15;stroke-linecap:round;stroke-linejoin:round;stroke-miterlimit:10;stroke-dasharray:none;stroke-opacity:1" transform="translate(115.6 288.065)" fill="none" stroke="#bb2025" stroke-width="15" stroke-linecap="round" stroke-linejoin="round" stroke-miterlimit="10" stroke-dasharray="none" stroke-opacity="" data-original="#000000" opacity="1"></path><path d="m0 0-61.385-28.987a23.855 23.855 0 0 0-20.374 0L-143.144 0" style="stroke-width:15;stroke-linecap:round;stroke-linejoin:round;stroke-miterlimit:10;stroke-dasharray:none;stroke-opacity:1" transform="translate(235.27 81.399)" fill="none" stroke="#bb2025" stroke-width="15" stroke-linecap="round" stroke-linejoin="round" stroke-miterlimit="10" stroke-dasharray="none" stroke-opacity="" data-original="#000000" opacity="1"></path><path d="M0 0v-24.595a24.048 24.048 0 0 1 14.097-21.893l55.284-25.13a32.063 32.063 0 0 0 18.796-29.19v-27.45" style="stroke-width:15;stroke-linecap:round;stroke-linejoin:round;stroke-miterlimit:10;stroke-dasharray:none;stroke-opacity:1" transform="translate(203.778 135.758)" fill="none" stroke="#bb2025" stroke-width="15" stroke-linecap="round" stroke-linejoin="round" stroke-miterlimit="10" stroke-dasharray="none" stroke-opacity="" data-original="#000000" opacity="1"></path><path d="M0 0c0-39.844 32.301-72.145 72.146-72.145 39.844 0 72.145 32.301 72.145 72.145 0 39.845-32.301 72.145-72.145 72.145C32.301 72.145 0 39.845 0 0Z" style="stroke-width:15;stroke-linecap:round;stroke-linejoin:round;stroke-miterlimit:10;stroke-dasharray:none;stroke-opacity:1" transform="translate(332.27 432.355)" fill="none" stroke="#bb2025" stroke-width="15" stroke-linecap="round" stroke-linejoin="round" stroke-miterlimit="10" stroke-dasharray="none" stroke-opacity="" data-original="#000000" opacity="1"></path><path d="M0 0c0-48.699 39.479-88.177 88.178-88.177 48.698 0 88.177 39.478 88.177 88.177 0 48.699-39.479 88.177-88.177 88.177C39.479 88.177 0 48.699 0 0Z" style="stroke-width:15;stroke-linecap:round;stroke-linejoin:round;stroke-miterlimit:10;stroke-dasharray:none;stroke-opacity:1" transform="translate(131.633 368.226)" fill="none" stroke="#bb2025" stroke-width="15" stroke-linecap="round" stroke-linejoin="round" stroke-miterlimit="10" stroke-dasharray="none" stroke-opacity="" data-original="#000000" opacity="1"></path><path d="M0 0c0 .959.067 1.903.196 2.827 1.394 9.988 10.068 17.645 20.489 17.435 10.541-.212 19.273-8.655 19.819-19.184.606-11.668-8.688-21.344-20.238-21.344v-21.192" style="stroke-width:15;stroke-linecap:round;stroke-linejoin:round;stroke-miterlimit:10;stroke-dasharray:none;stroke-opacity:1" transform="translate(199.218 389.828)" fill="none" stroke="#bb2025" stroke-width="15" stroke-linecap="round" stroke-linejoin="round" stroke-miterlimit="10" stroke-dasharray="none" stroke-opacity="" data-original="#000000" opacity="1"></path><path d="M0 0v0" style="stroke-width:15;stroke-linecap:round;stroke-linejoin:round;stroke-miterlimit:10;stroke-dasharray:none;stroke-opacity:1" transform="translate(219.484 321.917)" fill="none" stroke="#bb2025" stroke-width="15" stroke-linecap="round" stroke-linejoin="round" stroke-miterlimit="10" stroke-dasharray="none" stroke-opacity="" data-original="#000000" opacity="1"></path><path d="M0 0c0 .865.06 1.716.176 2.548 1.257 9.005 9.077 15.908 18.471 15.719 9.503-.192 17.375-7.803 17.868-17.295.546-10.519-7.832-19.242-18.245-19.242v-19.105" style="stroke-width:15;stroke-linecap:round;stroke-linejoin:round;stroke-miterlimit:10;stroke-dasharray:none;stroke-opacity:1" transform="translate(386.38 452.061)" fill="none" stroke="#bb2025" stroke-width="15" stroke-linecap="round" stroke-linejoin="round" stroke-miterlimit="10" stroke-dasharray="none" stroke-opacity="" data-original="#000000" opacity="1"></path><path d="M0 0v0" style="stroke-width:15;stroke-linecap:round;stroke-linejoin:round;stroke-miterlimit:10;stroke-dasharray:none;stroke-opacity:1" transform="translate(404.65 390.838)" fill="none" stroke="#bb2025" stroke-width="15" stroke-linecap="round" stroke-linejoin="round" stroke-miterlimit="10" stroke-dasharray="none" stroke-opacity="" data-original="#000000" opacity="1"></path><path d="M0 0c0 1.134.079 2.249.231 3.341C1.878 15.145 12.13 24.194 24.445 23.946c12.458-.251 22.778-10.228 23.424-22.672.715-13.789-10.268-25.225-23.918-25.225v-25.045" style="stroke-width:15;stroke-linecap:round;stroke-linejoin:round;stroke-miterlimit:10;stroke-dasharray:none;stroke-opacity:1" transform="translate(337.38 294.174)" fill="none" stroke="#bb2025" stroke-width="15" stroke-linecap="round" stroke-linejoin="round" stroke-miterlimit="10" stroke-dasharray="none" stroke-opacity="" data-original="#000000" opacity="1"></path><path d="M0 0v0" style="stroke-width:15;stroke-linecap:round;stroke-linejoin:round;stroke-miterlimit:10;stroke-dasharray:none;stroke-opacity:1" transform="translate(361.331 213.915)" fill="none" stroke="#bb2025" stroke-width="15" stroke-linecap="round" stroke-linejoin="round" stroke-miterlimit="10" stroke-dasharray="none" stroke-opacity="" data-original="#000000" opacity="1"></path></g></g></svg>