<svg xmlns="http://www.w3.org/2000/svg" version="1.1" xmlns:xlink="http://www.w3.org/1999/xlink" width="512" height="512" x="0" y="0" viewBox="0 0 32 32" style="enable-background:new 0 0 512 512" xml:space="preserve"><g><path d="M2.6 25.75a.75.75 0 0 1-.612-1.184 8.191 8.191 0 0 0 1.47-3.667c.022-.168.038-.336.049-.5A11.906 11.906 0 0 1 .25 12.2C.25 5.61 5.61.25 12.2.25S24.15 5.61 24.15 12.2 18.79 24.15 12.2 24.15c-1.542 0-3.035-.288-4.443-.856a9.824 9.824 0 0 1-5.032 2.446.784.784 0 0 1-.125.01zm9.6-24C6.438 1.75 1.75 6.438 1.75 12.2c0 2.777 1.085 5.399 3.055 7.384a.752.752 0 0 1 .218.551 9.487 9.487 0 0 1-.862 3.662 8.123 8.123 0 0 0 2.718-1.736l.18-.181a.751.751 0 0 1 .844-.154 10.32 10.32 0 0 0 4.297.924c5.763 0 10.45-4.688 10.45-10.45S17.964 1.75 12.2 1.75z" fill="#bb2025" opacity="1" data-original="#000000"></path><path d="M29.4 31.75a.764.764 0 0 1-.127-.01c-1.92-.333-3.653-1.175-5.028-2.444a11.837 11.837 0 0 1-4.445.854 11.907 11.907 0 0 1-8.131-3.2.75.75 0 1 1 1.021-1.1 10.41 10.41 0 0 0 7.11 2.8c1.504 0 2.95-.31 4.3-.923a.751.751 0 0 1 .842.155l.19.19a8.103 8.103 0 0 0 2.709 1.723 9.646 9.646 0 0 1-.784-2.693 10.053 10.053 0 0 1-.076-.966.751.751 0 0 1 .216-.554A10.434 10.434 0 0 0 30.25 18.2c0-3.501-1.74-6.748-4.655-8.685a.75.75 0 0 1 .83-1.25A11.9 11.9 0 0 1 31.75 18.2c0 3.06-1.153 5.957-3.255 8.197.01.166.025.336.048.504a8.27 8.27 0 0 0 1.467 3.662.75.75 0 0 1-.61 1.187zM12 15.791a.75.75 0 0 1-.75-.75v-.348c0-1.364.701-2.611 1.785-3.176 1.027-.536 1.56-1.766 1.297-2.991-.2-.932-.91-1.698-1.767-1.906a2.26 2.26 0 0 0-1.968.423c-.624.49-.997 1.282-.997 2.118a.75.75 0 0 1-1.5 0c0-1.292.587-2.525 1.57-3.298a3.774 3.774 0 0 1 3.25-.7c1.427.346 2.557 1.543 2.879 3.049.403 1.883-.448 3.789-2.07 4.635-.595.31-.979 1.034-.979 1.846v.349a.75.75 0 0 1-.75.75z" fill="#bb2025" opacity="1" data-original="#000000"></path><circle cx="12" cy="18.372" r="1.05" fill="#bb2025" opacity="1" data-original="#000000"></circle></g></svg>